{"title":"Big_Daddy_DVDRip_Reaper_Silently","uid":6721161,"size":1217729546,"categoryP":"video","categoryS":"movies","magnet":"?xt=urn:btih:d1f9be27fff5004c348643b002e35a493b17f92d&amp;dn=Big_Daddy_DVDRip_Reaper_Silently&amp;tr=udp%3A%2F%2Ftracker.openbittorrent.com%3A80&amp;tr=udp%3A%2F%2Fopen.demonii.com%3A1337&amp;tr=udp%3A%2F%2Ftracker.coppersurfer.tk%3A6969&amp;tr=udp%3A%2F%2Fexodus.desync.com%3A6969","seeders":0,"leechers":0,"uploader":"Reaper_Silently","files":1,"time":1317796361,"description":"A lazy law school grad adopts a kid to impress his girlfriend, but everything doesn't go as planned and he becomes the unlikely foster father.\n \n\n\nDirector: \nDennis Dugan\n\n Writers: \nSteve Franks (story), Steve Franks (screenplay), and 2 more credits Ã‚Â» \n\nStars:\n Adam Sandler, Joey Lauren Adams and Jon Stewart \n\nGeneral\n\nFormat : AVI\nFormat/Info : Audio Video Interleave\nFile size : 1.13 GiB\nDuration : 1h 29mn\nOverall bit rate : 1 818 Kbps\nMovie name : DVD_VIDEO.Title1.DVDRip\nWriting application : Lavf52.33.0\n\nVideo\n\nID : 0\nFormat : AVC\nFormat/Info : Advanced Video Codec\nFormat profile : &lt;a class=&quot;__cf_email__&quot; href=&quot;/cdn-cgi/l/email-protection&quot; data-cfemail=&quot;6c2e0d1f09000502092c205d425f&quot;&gt;[email&amp;#160;protected]&lt;/a&gt;&lt;script data-cfhash='f9e31' type=&quot;text/javascript&quot;&gt;\n/* &lt;![CDATA[ */!function(){try{var t=&quot;currentScript&quot;in document?document.currentScript:function(){for(var t=document.getElementsByTagName(&quot;script&quot;),e=t.length;e--;)if(t[e].getAttribute(&quot;data-cfhash&quot;))return t[e]}();if(t&amp;&amp;t.previousSibling){var e,r,n,i,c=t.previousSibling,a=c.getAttribute(&quot;data-cfemail&quot;);if(a){for(e=&quot;&quot;,r=parseInt(a.substr(0,2),16),n=2;a.length-n;n+=2)i=parseInt(a.substr(n,2),16)^r,e+=String.fromCharCode(i);e=document.createTextNode(e),c.parentNode.replaceChild(e,c)}t.parentNode.removeChild(t);}}catch(u){}}()/* ]]&gt; */&lt;/script&gt;\nFormat settings, CABAC : No\nFormat settings, ReFrames : 1 frame\nCodec ID : H264\nDuration : 1h 29mn\nBit rate : 1 423 Kbps\nWidth : 736 pixels\nHeight : 408 pixels\nDisplay aspect ratio : 16:9\nFrame rate : 25.000 fps\nColor space : YUV\nChroma subsampling : 4:2:0\nBit depth : 8 bits\nScan type : Progressive\nBits/(Pixel*Frame) : 0.190\nStream size : 909 MiB (78%)\nWriting library : x264 core 67\n\nAudio\n\nID : 1\nFormat : AC-3\nFormat/Info : Audio Coding 3\nMode extension : CM (complete main)\nCodec ID : 2000\nDuration : 1h 29mn\nBit rate mode : Constant\nBit rate : 384 Kbps\nChannel(s) : 6 channels\nChannel positions : Front: L C R, Side: L R, LFE\nSampling rate : 48.0 KHz\nBit depth : 16 bits\nCompression mode : Lossy\nStream size : 245 MiB (21%)\nAlignment : Aligned on interleaves\nInterleave, duration : 32 ms (0.80 video frame)\n\n\nPlease Seed.!\n\nReaper_Silently","torrent":{"xt":"urn:btih:d1f9be27fff5004c348643b002e35a493b17f92d","amp;dn":"Big_Daddy_DVDRip_Reaper_Silently","amp;tr":["udp%3A%2F%2Ftracker.openbittorrent.com%3A80","udp%3A%2F%2Fopen.demonii.com%3A1337","udp%3A%2F%2Ftracker.coppersurfer.tk%3A6969","udp%3A%2F%2Fexodus.desync.com%3A6969"],"infoHash":"d1f9be27fff5004c348643b002e35a493b17f92d","infoHashBuffer":{"type":"Buffer","data":[209,249,190,39,255,245,0,76,52,134,67,176,2,227,90,73,59,23,249,45]},"announce":[],"urlList":[]}}